<?xml version="1.0" encoding="UTF-8"?>
<svg width="280px" height="73px" viewBox="0 0 280 73" version="1.1" xmlns="http://www.w3.org/2000/svg" xmlns:xlink="http://www.w3.org/1999/xlink">
    <!-- Generator: Sketch 49.3 (51167) - http://www.bohemiancoding.com/sketch -->
    <title>Group</title>
    <desc>Created with Sketch.</desc>
    <defs>
        <path d="M48.044878,53.3904497 C47.0726067,57.8343022 44.9600998,61.8076874 41.7073333,65.3106667 C36.9704208,70.4369145 31.1791453,73 24.3333333,73 C17.4875213,73 11.6962459,70.4369145 6.95933333,65.3106667 C3.59275404,61.6851197 1.44762466,57.5556725 0.523918608,52.9222568 C1.58215605,52.1165486 2.78607859,51.5003097 4,51.4900312 C5.49687804,51.4773567 7.01012594,52.4548258 8.24481388,53.5671942 C9.03731455,55.9685985 10.3283738,58.1635265 12.118,60.152 C15.4273499,63.8506852 19.4990869,65.7 24.3333333,65.7 C29.1675797,65.7 33.2555388,63.8506852 36.5973333,60.152 C38.5504016,57.9597806 39.9036197,55.5166311 40.6569987,52.8225223 C41.6825389,52.0662285 42.8366781,51.4998813 44,51.4900312 C45.4170234,51.4780329 46.8487167,52.3533527 48.044878,53.3904497 Z M48.5275415,50.3239196 C47.3620097,48.8832323 45.8355041,48 44,48 C43.0560087,48 42.1556605,48.232523 41.3339258,48.6540529 C41.3557531,48.2572683 41.3666667,47.8559173 41.3666667,47.45 C41.3666667,42.5508644 39.7769048,38.3169067 36.5973333,34.748 C33.2879835,31.0493148 29.2000243,29.2 24.3333333,29.2 C19.4990869,29.2 15.4273499,31.0493148 12.118,34.748 C8.93842855,38.3169067 7.33244461,42.5508644 7.3,47.45 C7.3,48.0347426 7.32287872,48.610009 7.36863623,49.1757997 C6.40743479,48.4286477 5.27869854,48 4,48 C2.54325053,48 1.19043338,48.5537319 0.0700618307,49.5012768 C0.0233539201,48.8271543 0,48.1433955 0,47.45 L0,3.65 C0,1.2166545 1.2166545,0 3.65,0 C6.0833455,0 7.3,1.2166545 7.3,3.65 L7.3,29.2 C12.004468,24.333309 17.682189,21.9 24.3333333,21.9 C31.1791453,21.9 36.9704208,24.4630855 41.7073333,29.5893333 C46.3469121,34.5858028 48.6666667,40.5392988 48.6666667,47.45 C48.6666667,48.4271088 48.6202917,49.3850819 48.5275415,50.3239196 Z M104.639191,69.35 C104.639191,71.7833455 103.422537,73 100.989191,73 C98.4909566,73 97.2743021,71.2966837 97.3391914,67.89 C92.5373896,71.2966837 86.8596686,73 80.305858,73 C74.3036058,73 68.9341039,71.4913484 64.1971914,68.474 C58.7140528,64.9699825 55.9725247,60.3953616 55.9725247,54.75 C55.9725247,49.137083 58.7140528,44.5624621 64.1971914,41.026 C68.9341039,38.0086516 74.3036058,36.5 80.305858,36.5 C86.8596686,36.5 92.5373896,38.2033163 97.3391914,41.61 L97.3391914,40.15 C97.3391914,38.6899927 96.8363075,37.2462294 95.8305247,35.8186667 C92.8131763,31.4062002 87.6383391,29.2 80.305858,29.2 C76.0880592,29.2 71.9189897,30.4004324 67.7985247,32.8013333 C66.9549649,33.2880024 66.2249722,33.5313333 65.6085247,33.5313333 C64.6351865,33.5313333 63.7835283,33.1501149 63.0535247,32.3876667 C62.323521,31.6252184 61.9585247,30.7411161 61.9585247,29.7353333 C61.9585247,27.366877 64.5053881,25.3715637 69.5991914,23.7493333 C73.5574334,22.5164383 77.1262866,21.9 80.305858,21.9 C86.2756657,21.9 91.6451675,23.4086516 96.4145247,26.426 C101.897663,29.9300175 104.639191,34.5046384 104.639191,40.15 L104.639191,69.35 Z M97.3391914,54.75 C97.3391914,52.4464329 96.2360913,50.3213431 94.029858,48.3746667 C92.1805154,46.7524363 89.9905373,45.568226 87.459858,44.822 C85.2536248,44.1406633 82.868982,43.8 80.305858,43.8 C72.7787093,43.8 67.5389839,46.1035325 64.5865247,50.7106667 C63.7105203,52.0733401 63.2725247,53.4197711 63.2725247,54.75 C63.2725247,56.0802289 63.7105203,57.4266599 64.5865247,58.7893333 C67.5389839,63.3964675 72.7787093,65.7 80.305858,65.7 C82.868982,65.7 85.2536248,65.3593367 87.459858,64.678 C90.022982,63.931774 92.2129601,62.7475637 94.029858,61.1253333 C96.2360913,59.1786569 97.3391914,57.0535671 97.3391914,54.75 Z M162.120383,56.5506667 C162.120383,61.7742483 159.508631,65.9270957 154.285049,69.0093333 C149.840138,71.6697911 144.843744,73 139.295716,73 C135.142806,73 131.168402,72.2051191 127.372383,70.6153333 C122.992361,68.7659908 119.942614,66.2029053 118.223049,62.926 C117.866159,62.2446633 117.687716,61.6120029 117.687716,61.028 C117.687716,60.0546618 118.077045,59.2111147 118.855716,58.4973333 C119.634387,57.783552 120.510378,57.4266667 121.483716,57.4266667 C122.586833,57.4266667 123.608822,58.059327 124.549716,59.3246667 C127.729288,63.5749101 132.644572,65.7 139.295716,65.7 C145.849527,65.7 150.52148,63.8993513 153.311716,60.298 C154.285054,58.9677711 154.787938,57.7186725 154.820383,56.5506667 C154.820383,54.5715457 153.684839,52.7384529 151.413716,51.0513333 C149.596818,49.7535491 147.520394,48.8126696 145.184383,48.2286667 C143.237706,47.709553 141.031506,47.45 138.565716,47.45 C134.380362,47.45 130.633066,46.4117882 127.323716,44.3353333 C123.495252,41.9019878 121.581049,38.6737979 121.581049,34.6506667 C121.581049,30.65998 123.560141,27.4480122 127.518383,25.0146667 C130.892622,22.9382118 134.704806,21.9 138.955049,21.9 C141.615507,21.9 144.259703,22.3704397 146.887716,23.3113333 C149.905064,24.3820054 152.111265,25.8582128 153.506383,27.74 C154.155275,28.5835598 154.479716,29.3622187 154.479716,30.076 C154.479716,31.0493382 154.098498,31.9091074 153.336049,32.6553333 C152.573601,33.4015593 151.689499,33.7746667 150.683716,33.7746667 C150.261936,33.7746667 148.923616,33.0122298 146.668716,31.4873333 C144.413816,29.9624368 141.842619,29.2 138.955049,29.2 C134.542583,29.2 131.444169,30.4004324 129.659716,32.8013333 C129.140602,33.4502255 128.881049,34.0666637 128.881049,34.6506667 C128.881049,36.9542337 130.908807,38.6088839 134.964383,39.6146667 C136.327056,39.9715573 137.949262,40.15 139.831049,40.15 C145.281743,40.15 150.180805,41.496431 154.528383,44.1893333 C159.589741,47.3364602 162.120383,51.4568634 162.120383,56.5506667 Z M223.884241,69.35 C223.884241,71.7833455 222.667586,73 220.234241,73 C217.800895,73 216.584241,71.7833455 216.584241,69.35 L216.584241,36.5 C216.584241,34.4884344 215.87047,32.768896 214.442907,31.3413333 C213.015345,29.9137706 211.295806,29.2 209.284241,29.2 C207.272675,29.2 205.553137,29.9137706 204.125574,31.3413333 C202.698011,32.768896 201.984241,34.4884344 201.984241,36.5 L201.984241,69.35 C201.984241,71.7833455 200.767586,73 198.334241,73 C195.900895,73 194.684241,71.7833455 194.684241,69.35 L194.684241,36.5 C194.684241,34.4884344 193.97047,32.768896 192.542907,31.3413333 C191.115345,29.9137706 189.395806,29.2 187.384241,29.2 C185.372675,29.2 183.653137,29.9137706 182.225574,31.3413333 C180.798011,32.768896 180.084241,34.4884344 180.084241,36.5 L180.084241,69.35 C180.084241,71.7833455 178.867586,73 176.434241,73 C174.000895,73 172.784241,71.7833455 172.784241,69.35 L172.784241,25.55 C172.784241,23.1166545 174.000895,21.9 176.434241,21.9 C178.12136,21.9 179.240682,22.6299927 179.792241,24.09 C182.095808,22.6299927 184.626449,21.9 187.384241,21.9 C191.764263,21.9 195.414226,23.5546501 198.334241,26.864 C201.254255,23.5546501 204.904219,21.9 209.284241,21.9 C213.307372,21.9 216.746449,23.3275413 219.601574,26.1826667 C222.456699,29.0377921 223.884241,32.4768688 223.884241,36.5 L223.884241,69.35 Z M279.856765,69.35 C279.856765,71.7833455 278.640111,73 276.206765,73 C273.708531,73 272.491876,71.2966837 272.556765,67.89 C267.754964,71.2966837 262.077243,73 255.523432,73 C249.52118,73 244.151678,71.4913484 239.414765,68.474 C233.931627,64.9699825 231.190099,60.3953616 231.190099,54.75 C231.190099,49.137083 233.931627,44.5624621 239.414765,41.026 C244.151678,38.0086516 249.52118,36.5 255.523432,36.5 C262.077243,36.5 267.754964,38.2033163 272.556765,41.61 L272.556765,40.15 C272.556765,38.6899927 272.053882,37.2462294 271.048099,35.8186667 C268.03075,31.4062002 262.855913,29.2 255.523432,29.2 C251.305633,29.2 247.136564,30.4004324 243.016099,32.8013333 C242.172539,33.2880024 241.442546,33.5313333 240.826099,33.5313333 C239.852761,33.5313333 239.001102,33.1501149 238.271099,32.3876667 C237.541095,31.6252184 237.176099,30.7411161 237.176099,29.7353333 C237.176099,27.366877 239.722962,25.3715637 244.816765,23.7493333 C248.775007,22.5164383 252.343861,21.9 255.523432,21.9 C261.49324,21.9 266.862742,23.4086516 271.632099,26.426 C277.115237,29.9300175 279.856765,34.5046384 279.856765,40.15 L279.856765,69.35 Z M272.556765,54.75 C272.556765,52.4464329 271.453665,50.3213431 269.247432,48.3746667 C267.39809,46.7524363 265.208111,45.568226 262.677432,44.822 C260.471199,44.1406633 258.086556,43.8 255.523432,43.8 C247.996283,43.8 242.756558,46.1035325 239.804099,50.7106667 C238.928094,52.0733401 238.490099,53.4197711 238.490099,54.75 C238.490099,56.0802289 238.928094,57.4266599 239.804099,58.7893333 C242.756558,63.3964675 247.996283,65.7 255.523432,65.7 C258.086556,65.7 260.471199,65.3593367 262.677432,64.678 C265.240556,63.931774 267.430534,62.7475637 269.247432,61.1253333 C271.453665,59.1786569 272.556765,57.0535671 272.556765,54.75 Z" id="path-1"></path>
    </defs>
    <g id="Page-1" stroke="none" stroke-width="1" fill="none" fill-rule="evenodd">
        <g id="Artboard-Copy-5" transform="translate(-61.000000, -164.000000)">
            <g id="Group" transform="translate(61.000000, 164.000000)">
                <mask id="mask-2" fill="white">
                    <use xlink:href="#path-1"></use>
                </mask>
                <use id="basma" fill="#FFB600" xlink:href="#path-1"></use>
                <path d="M-2.21850586,52.5629883 C1.97855704,47.6833621 5.67329988,47.2963985 8.86572266,51.4020974 C12.0581454,55.5077963 17.549275,57.2512866 25.3391113,56.6325684 C34.2500814,53.1455877 38.7055664,51.4020974 38.7055664,51.4020974 C38.7055664,51.4020974 41.1290276,48.5217248 44.8693848,49.1130371 C47.3629562,49.5072453 49.2747401,51.2080917 50.6047363,54.2155762 L36.8366699,76.7714844 L12.1132812,75.7824707 L-0.0639648438,63.4902344 L-2.21850586,52.5629883 Z" id="Path-3" fill="#4783B0" mask="url(#mask-2)"></path>
            </g>
        </g>
    </g>
</svg>